<svg width="155" height="51" viewBox="0 0 155 51" fill="none" xmlns="http://www.w3.org/2000/svg">
<path d="M55.7734 33.0801C56.3594 33.0801 56.8691 32.9688 57.3027 32.7461C57.7363 32.5234 58.0703 32.2129 58.3047 31.8145C58.5508 31.4043 58.6738 30.9121 58.6738 30.3379H63.8418C63.8418 31.7207 63.4844 32.9395 62.7695 33.9941C62.0664 35.0488 61.1172 35.875 59.9219 36.4727C58.7266 37.0586 57.3789 37.3516 55.8789 37.3516C53.9102 37.3516 52.2695 36.9297 50.957 36.0859C49.6562 35.2305 48.6777 34.0762 48.0215 32.623C47.3652 31.1699 47.0371 29.5352 47.0371 27.7188V27.2617C47.0371 25.4453 47.3594 23.8164 48.0039 22.375C48.6602 20.9219 49.6445 19.7676 50.957 18.9121C52.2695 18.0566 53.9043 17.6289 55.8613 17.6289C57.4199 17.6289 58.7969 17.9277 59.9922 18.5254C61.1992 19.123 62.1426 19.9844 62.8223 21.1094C63.502 22.2227 63.8418 23.5645 63.8418 25.1348H58.6738C58.6738 24.5254 58.5625 23.9805 58.3398 23.5C58.1289 23.0078 57.8008 22.6211 57.3555 22.3398C56.9219 22.0469 56.3828 21.9004 55.7383 21.9004C54.8477 21.9004 54.168 22.1523 53.6992 22.6562C53.2422 23.1484 52.9316 23.8047 52.7676 24.625C52.6152 25.4453 52.5391 26.3242 52.5391 27.2617V27.7188C52.5391 28.6914 52.6152 29.582 52.7676 30.3906C52.9316 31.1992 53.2422 31.8496 53.6992 32.3418C54.168 32.834 54.8594 33.0801 55.7734 33.0801ZM71.9277 10V37H66.4434V10H71.9277ZM71.207 26.8223L69.8359 26.8574C69.8359 25.0762 70.1289 23.4941 70.7148 22.1113C71.3008 20.7168 72.1211 19.6211 73.1758 18.8242C74.2422 18.0273 75.4844 17.6289 76.9023 17.6289C78.1562 17.6289 79.2578 17.875 80.207 18.3672C81.168 18.8477 81.9121 19.6328 82.4395 20.7227C82.9668 21.8125 83.2305 23.2656 83.2305 25.082V37H77.7109V25.0469C77.7109 24.2383 77.5938 23.6055 77.3594 23.1484C77.1367 22.6914 76.8086 22.3691 76.375 22.1816C75.9531 21.9941 75.4375 21.9004 74.8281 21.9004C74.1133 21.9004 73.5215 22.0293 73.0527 22.2871C72.584 22.5332 72.2148 22.8789 71.9453 23.3242C71.6758 23.7695 71.4824 24.291 71.3652 24.8887C71.2598 25.4863 71.207 26.1309 71.207 26.8223ZM95.7812 37.3516C93.7656 37.3516 92.0371 36.9355 90.5957 36.1035C89.166 35.2715 88.0645 34.1582 87.291 32.7637C86.5293 31.3574 86.1484 29.8105 86.1484 28.123V27.4551C86.1484 25.5684 86.4941 23.8867 87.1855 22.4102C87.8887 20.9219 88.9141 19.7559 90.2617 18.9121C91.6211 18.0566 93.2617 17.6289 95.1836 17.6289C96.9883 17.6289 98.5234 18.0156 99.7891 18.7891C101.055 19.5508 102.021 20.6289 102.689 22.0234C103.357 23.418 103.691 25.0586 103.691 26.9453V29.1953H88.3633V25.6621H98.3125V25.2402C98.3125 24.5723 98.1895 23.9863 97.9434 23.4824C97.709 22.9785 97.3574 22.5918 96.8887 22.3223C96.4316 22.041 95.8516 21.9004 95.1484 21.9004C94.2695 21.9004 93.5723 22.1465 93.0566 22.6387C92.5527 23.1309 92.1953 23.7988 91.9844 24.6426C91.7734 25.4746 91.668 26.4121 91.668 27.4551V28.123C91.668 29.1074 91.8438 29.9746 92.1953 30.7246C92.5586 31.4629 93.0742 32.043 93.7422 32.4648C94.4102 32.8867 95.207 33.0977 96.1328 33.0977C97 33.0977 97.8262 32.9336 98.6113 32.6055C99.3965 32.2656 100.076 31.7383 100.65 31.0234L103.217 33.959C102.631 34.8027 101.705 35.582 100.439 36.2969C99.1738 37 97.6211 37.3516 95.7812 37.3516ZM114.309 33.0801C114.895 33.0801 115.404 32.9688 115.838 32.7461C116.271 32.5234 116.605 32.2129 116.84 31.8145C117.086 31.4043 117.209 30.9121 117.209 30.3379H122.377C122.377 31.7207 122.02 32.9395 121.305 33.9941C120.602 35.0488 119.652 35.875 118.457 36.4727C117.262 37.0586 115.914 37.3516 114.414 37.3516C112.445 37.3516 110.805 36.9297 109.492 36.0859C108.191 35.2305 107.213 34.0762 106.557 32.623C105.9 31.1699 105.572 29.5352 105.572 27.7188V27.2617C105.572 25.4453 105.895 23.8164 106.539 22.375C107.195 20.9219 108.18 19.7676 109.492 18.9121C110.805 18.0566 112.439 17.6289 114.396 17.6289C115.955 17.6289 117.332 17.9277 118.527 18.5254C119.734 19.123 120.678 19.9844 121.357 21.1094C122.037 22.2227 122.377 23.5645 122.377 25.1348H117.209C117.209 24.5254 117.098 23.9805 116.875 23.5C116.664 23.0078 116.336 22.6211 115.891 22.3398C115.457 22.0469 114.918 21.9004 114.273 21.9004C113.383 21.9004 112.703 22.1523 112.234 22.6562C111.777 23.1484 111.467 23.8047 111.303 24.625C111.15 25.4453 111.074 26.3242 111.074 27.2617V27.7188C111.074 28.6914 111.15 29.582 111.303 30.3906C111.467 31.1992 111.777 31.8496 112.234 32.3418C112.703 32.834 113.395 33.0801 114.309 33.0801ZM130.621 9.98242V37H125.119V9.98242H130.621ZM142.697 17.9805L134.418 27.543L130.041 31.9375L127.844 28.2285L131.395 23.6406L136.088 17.9805H142.697ZM136.896 37L131.535 28.2637L135.473 25.1875L143.189 37H136.896Z" fill="#E69A8D"/>
<rect y="3" width="62" height="10" rx="5" fill="#5F4B8B"/>
<rect y="22" width="43" height="10" rx="5" fill="#E69A8D"/>
<rect y="41" width="145" height="10" rx="5" fill="#5F4B8B"/>
</svg>
